<mxfile host="65bd71144e">
    <diagram id="bAOXMMUSft2pbj8Q4JKM" name="第 1 页">
        <mxGraphModel dx="1047" dy="1203" grid="0" gridSize="10" guides="1" tooltips="1" connect="1" arrows="1" fold="1" page="0" pageScale="1" pageWidth="827" pageHeight="1169" background="#ffffff" math="0" shadow="0">
            <root>
                <mxCell id="0"/>
                <mxCell id="1" parent="0"/>
                <mxCell id="2" value="&lt;font color=&quot;#000000&quot;&gt;&lt;span style=&quot;background-color: rgb(255, 255, 255);&quot;&gt;进入付款页&lt;/span&gt;&lt;/font&gt;" style="whiteSpace=wrap;html=1;fillColor=#FFFFFF;strokeColor=#36393d;" parent="1" vertex="1">
                    <mxGeometry x="274.25" y="41" width="120" height="60" as="geometry"/>
                </mxCell>
                <mxCell id="8" style="edgeStyle=none;html=1;exitX=0.5;exitY=1;exitDx=0;exitDy=0;strokeColor=#000000;fontColor=#000000;entryX=0;entryY=0.5;entryDx=0;entryDy=0;" parent="1" source="7" target="7" edge="1">
                    <mxGeometry relative="1" as="geometry">
                        <mxPoint x="179" y="259" as="targetPoint"/>
                        <Array as="points">
                            <mxPoint x="334" y="407"/>
                            <mxPoint x="126" y="407"/>
                            <mxPoint x="126" y="252"/>
                        </Array>
                    </mxGeometry>
                </mxCell>
                <mxCell id="9" value="&lt;span style=&quot;background-color: rgb(255, 255, 255);&quot;&gt;没有状态，继续轮询查询&lt;/span&gt;" style="edgeLabel;html=1;align=center;verticalAlign=middle;resizable=0;points=[];fontColor=#000000;" parent="8" vertex="1" connectable="0">
                    <mxGeometry x="0.3306" y="2" relative="1" as="geometry">
                        <mxPoint as="offset"/>
                    </mxGeometry>
                </mxCell>
                <mxCell id="14" style="edgeStyle=none;html=1;exitX=0.5;exitY=1;exitDx=0;exitDy=0;strokeColor=#000000;fontColor=#FFFFFF;" parent="1" source="7" target="13" edge="1">
                    <mxGeometry relative="1" as="geometry"/>
                </mxCell>
                <mxCell id="15" value="&lt;span style=&quot;background-color: rgb(255, 255, 255);&quot;&gt;&lt;font color=&quot;#000000&quot;&gt;有状态&lt;/font&gt;&lt;/span&gt;" style="edgeLabel;html=1;align=center;verticalAlign=middle;resizable=0;points=[];fontColor=#FFFFFF;" parent="14" vertex="1" connectable="0">
                    <mxGeometry x="0.485" y="-1" relative="1" as="geometry">
                        <mxPoint as="offset"/>
                    </mxGeometry>
                </mxCell>
                <mxCell id="7" value="设置定时器轮询查询接口状态" style="rhombus;whiteSpace=wrap;html=1;labelBackgroundColor=#FFFFFF;fontColor=#000000;fillColor=#FFFFFF;strokeColor=#000000;" parent="1" vertex="1">
                    <mxGeometry x="239.5" y="203" width="189.5" height="103" as="geometry"/>
                </mxCell>
                <mxCell id="56" style="edgeStyle=none;html=1;exitX=0.5;exitY=1;exitDx=0;exitDy=0;entryX=0.5;entryY=0;entryDx=0;entryDy=0;labelBackgroundColor=#FFFFFF;strokeColor=#000000;fontSize=14;fontColor=#000000;" parent="1" source="13" target="23" edge="1">
                    <mxGeometry relative="1" as="geometry"/>
                </mxCell>
                <mxCell id="57" value="是" style="edgeLabel;html=1;align=center;verticalAlign=middle;resizable=0;points=[];fontSize=14;fontColor=#000000;labelBackgroundColor=#FFFFFF;" parent="56" vertex="1" connectable="0">
                    <mxGeometry x="-0.2174" y="2" relative="1" as="geometry">
                        <mxPoint as="offset"/>
                    </mxGeometry>
                </mxCell>
                <mxCell id="13" value="是否支付成功" style="rhombus;whiteSpace=wrap;html=1;labelBackgroundColor=#FFFFFF;fontColor=#000000;fillColor=#FFFFFF;strokeColor=#000000;" parent="1" vertex="1">
                    <mxGeometry x="239.5" y="460" width="189.5" height="103" as="geometry"/>
                </mxCell>
                <mxCell id="52" style="edgeStyle=none;html=1;exitX=0.5;exitY=1;exitDx=0;exitDy=0;entryX=0.5;entryY=0;entryDx=0;entryDy=0;labelBackgroundColor=#FFFFFF;strokeColor=#000000;fontSize=20;fontColor=#000000;" parent="1" target="7" edge="1">
                    <mxGeometry relative="1" as="geometry">
                        <mxPoint x="334.25" y="101" as="sourcePoint"/>
                    </mxGeometry>
                </mxCell>
                <mxCell id="53" value="&lt;span style=&quot;background-color: rgb(255, 255, 255);&quot;&gt;否&lt;/span&gt;" style="edgeLabel;html=1;align=center;verticalAlign=middle;resizable=0;points=[];fontSize=14;fontColor=#000000;" parent="52" vertex="1" connectable="0">
                    <mxGeometry x="-0.0392" y="-3" relative="1" as="geometry">
                        <mxPoint as="offset"/>
                    </mxGeometry>
                </mxCell>
                <mxCell id="63" style="edgeStyle=none;html=1;exitX=0.5;exitY=1;exitDx=0;exitDy=0;entryX=0.5;entryY=0;entryDx=0;entryDy=0;labelBackgroundColor=#FFFFFF;strokeColor=#000000;fontSize=14;fontColor=#000000;" parent="1" source="23" target="61" edge="1">
                    <mxGeometry relative="1" as="geometry"/>
                </mxCell>
                <mxCell id="23" value="&lt;font color=&quot;#000000&quot;&gt;&lt;span style=&quot;background-color: rgb(255, 255, 255);&quot;&gt;清空定时器，防止退出后一直调用&lt;/span&gt;&lt;/font&gt;" style="whiteSpace=wrap;html=1;fillColor=#FFFFFF;strokeColor=#36393d;" parent="1" vertex="1">
                    <mxGeometry x="274.25" y="632" width="120" height="60" as="geometry"/>
                </mxCell>
                <mxCell id="28" style="edgeStyle=none;html=1;exitX=0.5;exitY=1;exitDx=0;exitDy=0;entryX=0.5;entryY=0;entryDx=0;entryDy=0;strokeColor=#000000;fontColor=#000000;" parent="1" source="26" target="29" edge="1">
                    <mxGeometry relative="1" as="geometry">
                        <mxPoint x="1139" y="174.0000000000001" as="targetPoint"/>
                    </mxGeometry>
                </mxCell>
                <mxCell id="26" value="&lt;font color=&quot;#000000&quot;&gt;&lt;span style=&quot;background-color: rgb(255, 255, 255);&quot;&gt;申请内网计划&lt;/span&gt;&lt;/font&gt;" style="whiteSpace=wrap;html=1;fillColor=#FFFFFF;strokeColor=#36393d;" parent="1" vertex="1">
                    <mxGeometry x="1079" y="34" width="120" height="63" as="geometry"/>
                </mxCell>
                <mxCell id="30" value="&lt;span style=&quot;background-color: rgb(255, 255, 255);&quot;&gt;是&lt;/span&gt;" style="edgeStyle=none;html=1;exitX=0.5;exitY=1;exitDx=0;exitDy=0;strokeColor=#000000;fontColor=#000000;entryX=0.5;entryY=0;entryDx=0;entryDy=0;" parent="1" source="29" target="31" edge="1">
                    <mxGeometry relative="1" as="geometry">
                        <mxPoint x="1139" y="296.625" as="targetPoint"/>
                    </mxGeometry>
                </mxCell>
                <mxCell id="29" value="是否选择商品" style="rhombus;whiteSpace=wrap;html=1;labelBackgroundColor=#FFFFFF;fontColor=#000000;fillColor=#FFFFFF;strokeColor=#000000;" parent="1" vertex="1">
                    <mxGeometry x="1059.12" y="150.5" width="159.75" height="86.5" as="geometry"/>
                </mxCell>
                <mxCell id="33" style="edgeStyle=none;html=1;labelBackgroundColor=#FFFFFF;strokeColor=#000000;fontColor=#000000;" parent="1" source="31" edge="1">
                    <mxGeometry relative="1" as="geometry">
                        <mxPoint x="1443" y="349" as="targetPoint"/>
                    </mxGeometry>
                </mxCell>
                <mxCell id="34" value="&lt;span style=&quot;background-color: rgb(255, 255, 255);&quot;&gt;将选择的商品信息带入申请计划页&lt;/span&gt;" style="edgeLabel;html=1;align=center;verticalAlign=middle;resizable=0;points=[];fontColor=#000000;" parent="33" vertex="1" connectable="0">
                    <mxGeometry x="-0.2629" y="1" relative="1" as="geometry">
                        <mxPoint x="16" y="-1" as="offset"/>
                    </mxGeometry>
                </mxCell>
                <mxCell id="31" value="选择预算且预算满足规定" style="rhombus;whiteSpace=wrap;html=1;labelBackgroundColor=#FFFFFF;fontColor=#000000;fillColor=#FFFFFF;strokeColor=#000000;" parent="1" vertex="1">
                    <mxGeometry x="1059.12" y="306" width="159.75" height="86.5" as="geometry"/>
                </mxCell>
                <mxCell id="36" style="edgeStyle=none;html=1;exitX=0.5;exitY=1;exitDx=0;exitDy=0;labelBackgroundColor=#FFFFFF;strokeColor=#000000;fontColor=#000000;" parent="1" source="35" edge="1">
                    <mxGeometry relative="1" as="geometry">
                        <mxPoint x="1502.75" y="434.75" as="targetPoint"/>
                    </mxGeometry>
                </mxCell>
                <mxCell id="35" value="&lt;font color=&quot;#000000&quot;&gt;完善项目信息、执行信息、资金信息等&lt;/font&gt;" style="whiteSpace=wrap;html=1;fillColor=#FFFFFF;strokeColor=#36393d;" parent="1" vertex="1">
                    <mxGeometry x="1443" y="317.75" width="120" height="63" as="geometry"/>
                </mxCell>
                <mxCell id="39" style="edgeStyle=none;html=1;exitX=0.5;exitY=1;exitDx=0;exitDy=0;entryX=0.5;entryY=0;entryDx=0;entryDy=0;labelBackgroundColor=#FFFFFF;strokeColor=#000000;fontColor=#000000;" parent="1" source="37" target="38" edge="1">
                    <mxGeometry relative="1" as="geometry"/>
                </mxCell>
                <mxCell id="37" value="&lt;font color=&quot;#000000&quot;&gt;提交申请内网计划&lt;/font&gt;" style="whiteSpace=wrap;html=1;fillColor=#FFFFFF;strokeColor=#36393d;" parent="1" vertex="1">
                    <mxGeometry x="1443" y="437" width="120" height="63" as="geometry"/>
                </mxCell>
                <mxCell id="40" value="是" style="edgeStyle=none;html=1;exitX=1;exitY=0.5;exitDx=0;exitDy=0;labelBackgroundColor=#FFFFFF;strokeColor=#000000;fontColor=#000000;entryX=0;entryY=0.5;entryDx=0;entryDy=0;" parent="1" source="38" target="41" edge="1">
                    <mxGeometry relative="1" as="geometry">
                        <mxPoint x="1763" y="602" as="targetPoint"/>
                    </mxGeometry>
                </mxCell>
                <mxCell id="38" value="校验通过" style="rhombus;whiteSpace=wrap;html=1;labelBackgroundColor=#FFFFFF;fontColor=#000000;fillColor=#FFFFFF;strokeColor=#000000;" parent="1" vertex="1">
                    <mxGeometry x="1423.12" y="559.5" width="159.75" height="86.5" as="geometry"/>
                </mxCell>
                <mxCell id="41" value="&lt;font color=&quot;#000000&quot;&gt;&lt;span style=&quot;background-color: rgb(255, 255, 255);&quot;&gt;将数据提交给后端&lt;/span&gt;&lt;/font&gt;" style="whiteSpace=wrap;html=1;fillColor=#FFFFFF;strokeColor=#36393d;" parent="1" vertex="1">
                    <mxGeometry x="1718" y="569" width="120" height="63" as="geometry"/>
                </mxCell>
                <mxCell id="42" value="&lt;font size=&quot;1&quot; color=&quot;#000000&quot;&gt;&lt;span style=&quot;background-color: rgb(255, 255, 255); font-size: 20px;&quot;&gt;前端&lt;/span&gt;&lt;/font&gt;" style="whiteSpace=wrap;html=1;fillColor=#FFFFFF;strokeColor=#36393d;" parent="1" vertex="1">
                    <mxGeometry x="1055" y="-82" width="568" height="37" as="geometry"/>
                </mxCell>
                <mxCell id="43" value="&lt;font size=&quot;1&quot; color=&quot;#000000&quot;&gt;&lt;span style=&quot;background-color: rgb(255, 255, 255); font-size: 20px;&quot;&gt;后端&lt;/span&gt;&lt;/font&gt;" style="whiteSpace=wrap;html=1;fillColor=#FFFFFF;strokeColor=#36393d;" parent="1" vertex="1">
                    <mxGeometry x="1636" y="-82" width="257" height="37" as="geometry"/>
                </mxCell>
                <mxCell id="44" value="&lt;font size=&quot;1&quot; color=&quot;#000000&quot;&gt;&lt;span style=&quot;background-color: rgb(255, 255, 255); font-size: 20px;&quot;&gt;关联采购计划&lt;/span&gt;&lt;/font&gt;" style="whiteSpace=wrap;html=1;fillColor=#FFFFFF;strokeColor=#36393d;" parent="1" vertex="1">
                    <mxGeometry x="1055" y="-28" width="278" height="37" as="geometry"/>
                </mxCell>
                <mxCell id="45" value="&lt;font size=&quot;1&quot; color=&quot;#000000&quot;&gt;&lt;span style=&quot;background-color: rgb(255, 255, 255); font-size: 20px;&quot;&gt;申请内网计划&lt;/span&gt;&lt;/font&gt;" style="whiteSpace=wrap;html=1;fillColor=#FFFFFF;strokeColor=#36393d;" parent="1" vertex="1">
                    <mxGeometry x="1345" y="-28" width="278" height="37" as="geometry"/>
                </mxCell>
                <mxCell id="46" value="" style="endArrow=none;dashed=1;html=1;dashPattern=1 3;strokeWidth=2;labelBackgroundColor=#FFFFFF;strokeColor=#000000;fontSize=20;fontColor=#000000;entryX=0.5;entryY=1;entryDx=0;entryDy=0;" parent="1" target="42" edge="1">
                    <mxGeometry width="50" height="50" relative="1" as="geometry">
                        <mxPoint x="1339" y="714" as="sourcePoint"/>
                        <mxPoint x="1514" y="276" as="targetPoint"/>
                    </mxGeometry>
                </mxCell>
                <mxCell id="47" value="" style="endArrow=none;dashed=1;html=1;dashPattern=1 3;strokeWidth=2;labelBackgroundColor=#FFFFFF;strokeColor=#000000;fontSize=20;fontColor=#000000;entryX=0.5;entryY=1;entryDx=0;entryDy=0;" parent="1" edge="1">
                    <mxGeometry width="50" height="50" relative="1" as="geometry">
                        <mxPoint x="1055" y="709" as="sourcePoint"/>
                        <mxPoint x="1055" y="-50" as="targetPoint"/>
                    </mxGeometry>
                </mxCell>
                <mxCell id="48" value="" style="endArrow=none;dashed=1;html=1;dashPattern=1 3;strokeWidth=2;labelBackgroundColor=#FFFFFF;strokeColor=#000000;fontSize=20;fontColor=#000000;entryX=0.5;entryY=1;entryDx=0;entryDy=0;" parent="1" edge="1">
                    <mxGeometry width="50" height="50" relative="1" as="geometry">
                        <mxPoint x="1623" y="714" as="sourcePoint"/>
                        <mxPoint x="1623" y="-45" as="targetPoint"/>
                    </mxGeometry>
                </mxCell>
                <mxCell id="49" value="" style="endArrow=none;dashed=1;html=1;dashPattern=1 3;strokeWidth=2;labelBackgroundColor=#FFFFFF;strokeColor=#000000;fontSize=20;fontColor=#000000;entryX=0.5;entryY=1;entryDx=0;entryDy=0;" parent="1" edge="1">
                    <mxGeometry width="50" height="50" relative="1" as="geometry">
                        <mxPoint x="1636" y="714" as="sourcePoint"/>
                        <mxPoint x="1636" y="-45" as="targetPoint"/>
                    </mxGeometry>
                </mxCell>
                <mxCell id="50" value="" style="endArrow=none;dashed=1;html=1;dashPattern=1 3;strokeWidth=2;labelBackgroundColor=#FFFFFF;strokeColor=#000000;fontSize=20;fontColor=#000000;entryX=0.5;entryY=1;entryDx=0;entryDy=0;" parent="1" edge="1">
                    <mxGeometry width="50" height="50" relative="1" as="geometry">
                        <mxPoint x="1893" y="706" as="sourcePoint"/>
                        <mxPoint x="1893" y="-53" as="targetPoint"/>
                    </mxGeometry>
                </mxCell>
                <mxCell id="61" value="&lt;span style=&quot;font-size: 12px;&quot;&gt;将付款信息带入账单页&lt;/span&gt;" style="ellipse;whiteSpace=wrap;html=1;labelBackgroundColor=#FFFFFF;strokeColor=#000000;fontSize=14;fontColor=#000000;fillColor=#FFFFFF;" parent="1" vertex="1">
                    <mxGeometry x="267.25" y="751" width="134" height="80" as="geometry"/>
                </mxCell>
                <mxCell id="66" value="高校" style="rounded=0;whiteSpace=wrap;html=1;fillColor=none;strokeColor=#000000;fontColor=#000000;labelBackgroundColor=none;labelBorderColor=none;" parent="1" vertex="1">
                    <mxGeometry x="2322" y="-206" width="252" height="60" as="geometry"/>
                </mxCell>
                <mxCell id="72" style="edgeStyle=none;html=1;exitX=0.5;exitY=1;exitDx=0;exitDy=0;entryX=0.5;entryY=0;entryDx=0;entryDy=0;labelBorderColor=#000000;strokeColor=#000000;fontColor=#000000;" parent="1" source="68" target="71" edge="1">
                    <mxGeometry relative="1" as="geometry"/>
                </mxCell>
                <mxCell id="68" value="创建采购任务" style="rounded=1;whiteSpace=wrap;html=1;labelBackgroundColor=none;labelBorderColor=none;fillColor=none;strokeColor=#000000;fontColor=#000000;" parent="1" vertex="1">
                    <mxGeometry x="2350" y="-100" width="203" height="60" as="geometry"/>
                </mxCell>
                <mxCell id="74" style="edgeStyle=none;html=1;exitX=0.5;exitY=1;exitDx=0;exitDy=0;entryX=0.5;entryY=0;entryDx=0;entryDy=0;labelBorderColor=#000000;strokeColor=#000000;fontColor=#000000;" parent="1" source="71" target="73" edge="1">
                    <mxGeometry relative="1" as="geometry"/>
                </mxCell>
                <mxCell id="71" value="‘handleCreateModelShow&lt;span style=&quot;background-color: initial;&quot;&gt;’方法校验商品数量，并将商品和参数传给下一级&lt;/span&gt;" style="rounded=1;whiteSpace=wrap;html=1;labelBackgroundColor=none;labelBorderColor=none;fillColor=none;strokeColor=#000000;fontColor=#000000;" parent="1" vertex="1">
                    <mxGeometry x="2346.5" y="1" width="209" height="60" as="geometry"/>
                </mxCell>
                <mxCell id="77" style="edgeStyle=none;html=1;exitX=0.5;exitY=1;exitDx=0;exitDy=0;entryX=0.5;entryY=0;entryDx=0;entryDy=0;labelBorderColor=#000000;strokeColor=#000000;fontColor=#000000;" parent="1" source="73" target="75" edge="1">
                    <mxGeometry relative="1" as="geometry"/>
                </mxCell>
                <mxCell id="73" value="getTaskNumber接受参数调用‘/demand/api/task/numberObtain’接口，存下rule参数，并打开创建采购任务弹窗" style="rounded=1;whiteSpace=wrap;html=1;labelBackgroundColor=none;labelBorderColor=none;fillColor=none;strokeColor=#000000;fontColor=#000000;" parent="1" vertex="1">
                    <mxGeometry x="2345" y="101" width="212" height="60" as="geometry"/>
                </mxCell>
                <mxCell id="78" style="edgeStyle=none;html=1;exitX=0.5;exitY=1;exitDx=0;exitDy=0;labelBorderColor=#000000;strokeColor=#000000;fontColor=#000000;" parent="1" source="75" target="76" edge="1">
                    <mxGeometry relative="1" as="geometry"/>
                </mxCell>
                <mxCell id="75" value="handleTaskSubmit方法调用&lt;br&gt;’/demand/api/task/validateTaskPurchasd‘&lt;br&gt;校验任务名称和编号" style="rounded=1;whiteSpace=wrap;html=1;labelBackgroundColor=none;labelBorderColor=none;fillColor=none;strokeColor=#000000;fontColor=#000000;" parent="1" vertex="1">
                    <mxGeometry x="2345" y="203" width="212" height="60" as="geometry"/>
                </mxCell>
                <mxCell id="81" style="edgeStyle=none;html=1;exitX=0.5;exitY=1;exitDx=0;exitDy=0;entryX=0.5;entryY=0;entryDx=0;entryDy=0;labelBorderColor=#000000;strokeColor=#000000;fontColor=#000000;" parent="1" source="76" target="79" edge="1">
                    <mxGeometry relative="1" as="geometry"/>
                </mxCell>
                <mxCell id="76" value="校验通过后通过createTask方法，调用&lt;br&gt;’/demand/api/task/createTaskPurchasd‘&lt;br&gt;创建采购任务" style="rounded=1;whiteSpace=wrap;html=1;labelBackgroundColor=none;labelBorderColor=none;fillColor=none;strokeColor=#000000;fontColor=#000000;" parent="1" vertex="1">
                    <mxGeometry x="2345" y="306" width="212" height="60" as="geometry"/>
                </mxCell>
                <mxCell id="92" value="是" style="edgeStyle=none;html=1;exitX=1;exitY=0.5;exitDx=0;exitDy=0;entryX=0;entryY=0.5;entryDx=0;entryDy=0;labelBackgroundColor=none;labelBorderColor=none;strokeColor=#000000;fontColor=#000000;" parent="1" source="79" target="84" edge="1">
                    <mxGeometry relative="1" as="geometry"/>
                </mxCell>
                <mxCell id="103" style="edgeStyle=none;html=1;exitX=0;exitY=0.5;exitDx=0;exitDy=0;entryX=0;entryY=0.5;entryDx=0;entryDy=0;labelBackgroundColor=none;labelBorderColor=none;strokeColor=#000000;fontColor=#000000;" parent="1" source="79" target="96" edge="1">
                    <mxGeometry relative="1" as="geometry">
                        <Array as="points">
                            <mxPoint x="2333" y="458"/>
                            <mxPoint x="2331" y="709"/>
                        </Array>
                    </mxGeometry>
                </mxCell>
                <mxCell id="79" value="是否需要审批流&lt;br&gt;是温附二机构&lt;br&gt;通过’source == 1‘&lt;br&gt;来判断" style="rhombus;whiteSpace=wrap;html=1;labelBackgroundColor=#FFFFFF;labelBorderColor=none;fillColor=none;strokeColor=#000000;fontColor=#000000;" parent="1" vertex="1">
                    <mxGeometry x="2370.5" y="406" width="161" height="103" as="geometry"/>
                </mxCell>
                <mxCell id="100" style="edgeStyle=none;html=1;exitX=0.5;exitY=1;exitDx=0;exitDy=0;entryX=1;entryY=0.5;entryDx=0;entryDy=0;labelBackgroundColor=none;labelBorderColor=none;strokeColor=#000000;fontColor=#000000;" parent="1" source="84" target="99" edge="1">
                    <mxGeometry relative="1" as="geometry">
                        <Array as="points">
                            <mxPoint x="2783" y="590"/>
                        </Array>
                    </mxGeometry>
                </mxCell>
                <mxCell id="84" value="getImplementAction方法调用&lt;br&gt;’/demand/api/workflow/implement/action‘&lt;br&gt;接口" style="rounded=1;whiteSpace=wrap;html=1;labelBackgroundColor=none;labelBorderColor=none;fillColor=none;strokeColor=#000000;fontColor=#000000;" parent="1" vertex="1">
                    <mxGeometry x="2677" y="427.5" width="212" height="60" as="geometry"/>
                </mxCell>
                <mxCell id="87" value="工作流" style="rounded=0;whiteSpace=wrap;html=1;fillColor=none;strokeColor=#000000;fontColor=#000000;labelBackgroundColor=none;labelBorderColor=none;" parent="1" vertex="1">
                    <mxGeometry x="2664" y="-206" width="233.5" height="60" as="geometry"/>
                </mxCell>
                <mxCell id="91" value="" style="endArrow=none;dashed=1;html=1;dashPattern=1 3;strokeWidth=2;labelBackgroundColor=none;labelBorderColor=none;strokeColor=#000000;fontColor=#000000;entryX=0;entryY=1;entryDx=0;entryDy=0;" parent="1" target="66" edge="1">
                    <mxGeometry width="50" height="50" relative="1" as="geometry">
                        <mxPoint x="2314" y="821" as="sourcePoint"/>
                        <mxPoint x="2164" y="61" as="targetPoint"/>
                        <Array as="points"/>
                    </mxGeometry>
                </mxCell>
                <mxCell id="93" value="" style="endArrow=none;dashed=1;html=1;dashPattern=1 3;strokeWidth=2;labelBackgroundColor=none;labelBorderColor=none;strokeColor=#000000;fontColor=#000000;entryX=1;entryY=1;entryDx=0;entryDy=0;" parent="1" target="66" edge="1">
                    <mxGeometry width="50" height="50" relative="1" as="geometry">
                        <mxPoint x="2576" y="822" as="sourcePoint"/>
                        <mxPoint x="2674" y="47" as="targetPoint"/>
                    </mxGeometry>
                </mxCell>
                <mxCell id="94" value="" style="endArrow=none;dashed=1;html=1;dashPattern=1 3;strokeWidth=2;labelBackgroundColor=none;labelBorderColor=none;strokeColor=#000000;fontColor=#000000;entryX=0;entryY=1;entryDx=0;entryDy=0;" parent="1" target="87" edge="1">
                    <mxGeometry width="50" height="50" relative="1" as="geometry">
                        <mxPoint x="2664" y="820" as="sourcePoint"/>
                        <mxPoint x="2674" y="-168" as="targetPoint"/>
                    </mxGeometry>
                </mxCell>
                <mxCell id="95" value="" style="endArrow=none;dashed=1;html=1;dashPattern=1 3;strokeWidth=2;labelBackgroundColor=none;labelBorderColor=none;strokeColor=#000000;fontColor=#000000;entryX=1;entryY=1;entryDx=0;entryDy=0;" parent="1" target="87" edge="1">
                    <mxGeometry width="50" height="50" relative="1" as="geometry">
                        <mxPoint x="2898" y="820" as="sourcePoint"/>
                        <mxPoint x="2676" y="150" as="targetPoint"/>
                    </mxGeometry>
                </mxCell>
                <mxCell id="96" value="创建成功" style="rounded=1;whiteSpace=wrap;html=1;labelBackgroundColor=none;labelBorderColor=none;fillColor=none;strokeColor=#000000;fontColor=#000000;" parent="1" vertex="1">
                    <mxGeometry x="2350" y="679" width="212" height="60" as="geometry"/>
                </mxCell>
                <mxCell id="102" style="edgeStyle=none;html=1;exitX=0.5;exitY=1;exitDx=0;exitDy=0;entryX=0.5;entryY=0;entryDx=0;entryDy=0;labelBackgroundColor=none;labelBorderColor=none;strokeColor=#000000;fontColor=#000000;" parent="1" source="99" target="101" edge="1">
                    <mxGeometry relative="1" as="geometry">
                        <Array as="points">
                            <mxPoint x="2456" y="651"/>
                            <mxPoint x="2781" y="651"/>
                        </Array>
                    </mxGeometry>
                </mxCell>
                <mxCell id="99" value="调用&lt;br&gt;’/neoericWorkflow/comp/listCandidateUsers‘&lt;br&gt;接口获取审核人" style="rounded=1;whiteSpace=wrap;html=1;labelBackgroundColor=none;labelBorderColor=none;fillColor=none;strokeColor=#000000;fontColor=#000000;" parent="1" vertex="1">
                    <mxGeometry x="2350" y="558" width="212" height="60" as="geometry"/>
                </mxCell>
                <mxCell id="101" value="getImplementAction方法调用&lt;br&gt;’/demand/api/workflow/implement/action‘&lt;br&gt;接口" style="rounded=1;whiteSpace=wrap;html=1;labelBackgroundColor=none;labelBorderColor=none;fillColor=none;strokeColor=#000000;fontColor=#000000;" parent="1" vertex="1">
                    <mxGeometry x="2677" y="679" width="212" height="60" as="geometry"/>
                </mxCell>
            </root>
        </mxGraphModel>
    </diagram>
</mxfile>